<svg width="96" height="81" viewBox="0 0 96 81" fill="none" xmlns="http://www.w3.org/2000/svg">
<g clip-path="url(#clip0_106_1842)">
<path d="M4.46072 76.3648C5.79234 78.8343 8.61851 79.8944 8.61851 79.8944C8.61851 79.8944 9.2857 76.9506 7.95408 74.4811C6.62246 72.0116 3.79629 70.9514 3.79629 70.9514C3.79629 70.9514 3.1291 73.8952 4.46072 76.3648Z" fill="#2F2E41"/>
<path d="M5.37606 75.5523C7.78017 76.9987 8.70607 79.8717 8.70607 79.8717C8.70607 79.8717 5.73413 80.3995 3.33002 78.9531C0.925901 77.5067 0 74.6338 0 74.6338C0 74.6338 2.97194 74.1059 5.37606 75.5523Z" fill="#93278F" fill-opacity="0.5"/>
<path d="M59.2766 3.84726H44.2766V4.06155H59.2766V3.84726Z" fill="#F2F2F2"/>
<path d="M55.2053 4.00797H54.991V5.99012H55.2053V4.00797Z" fill="#F2F2F2"/>
<path d="M48.6694 4.00797H48.4551V5.99012H48.6694V4.00797Z" fill="#F2F2F2"/>
<path d="M66.8838 14.133H51.8838V14.3473H66.8838V14.133Z" fill="#F2F2F2"/>
<path d="M56.1694 12.2044H55.9551V14.1865H56.1694V12.2044Z" fill="#F2F2F2"/>
<path d="M62.7053 12.2044H62.491V14.1865H62.7053V12.2044Z" fill="#F2F2F2"/>
<path d="M86.8123 18.9544H71.8123V19.1687H86.8123V18.9544Z" fill="#F2F2F2"/>
<path d="M76.0981 17.0258H75.8838V19.008H76.0981V17.0258Z" fill="#F2F2F2"/>
<path d="M82.6337 17.0258H82.4194V19.008H82.6337V17.0258Z" fill="#F2F2F2"/>
<path d="M85.3123 68.6687H70.3123V68.883H85.3123V68.6687Z" fill="#F2F2F2"/>
<path d="M74.5981 66.7401H74.3838V68.7223H74.5981V66.7401Z" fill="#F2F2F2"/>
<path d="M81.1337 66.7401H80.9194V68.7223H81.1337V66.7401Z" fill="#F2F2F2"/>
<path d="M59.7051 34.2758H44.7051V34.4901H59.7051V34.2758Z" fill="#F2F2F2"/>
<path d="M48.9909 32.3473H48.7766V34.3294H48.9909V32.3473Z" fill="#F2F2F2"/>
<path d="M55.5265 32.3473H55.3123V34.3294H55.5265V32.3473Z" fill="#F2F2F2"/>
<path d="M64.4194 60.0973H49.4194V60.3115H64.4194V60.0973Z" fill="#F2F2F2"/>
<path d="M53.7053 58.1687H53.491V60.1508H53.7053V58.1687Z" fill="#F2F2F2"/>
<path d="M60.2409 58.1687H60.0266V60.1508H60.2409V58.1687Z" fill="#F2F2F2"/>
<path d="M88.4194 52.2758H73.4194V52.4901H88.4194V52.2758Z" fill="#F2F2F2"/>
<path d="M77.7053 50.3473H77.491V52.3294H77.7053V50.3473Z" fill="#F2F2F2"/>
<path d="M84.2409 50.3473H84.0266V52.3294H84.2409V50.3473Z" fill="#F2F2F2"/>
<path d="M38.792 75.234H13.4221V75.0515H38.6095V66.1994H15.5549L14.4349 63.8661L14.5995 63.7872L15.6698 66.0168H38.792V75.234Z" fill="#2F2E41"/>
<path d="M16.7988 79.7057C17.8572 79.7057 18.7152 78.8477 18.7152 77.7893C18.7152 76.7308 17.8572 75.8728 16.7988 75.8728C15.7403 75.8728 14.8823 76.7308 14.8823 77.7893C14.8823 78.8477 15.7403 79.7057 16.7988 79.7057Z" fill="#3F3D56"/>
<path d="M35.6894 79.7057C36.7478 79.7057 37.6058 78.8477 37.6058 77.7893C37.6058 76.7308 36.7478 75.8728 35.6894 75.8728C34.631 75.8728 33.7729 76.7308 33.7729 77.7893C33.7729 78.8477 34.631 79.7057 35.6894 79.7057Z" fill="#3F3D56"/>
<path d="M57.9564 38.2742C58.6116 38.2742 59.1428 37.743 59.1428 37.0878C59.1428 36.4326 58.6116 35.9015 57.9564 35.9015C57.3012 35.9015 56.77 36.4326 56.77 37.0878C56.77 37.743 57.3012 38.2742 57.9564 38.2742Z" fill="#3F3D56"/>
<path d="M41.5057 63.1878H12.9898L6.81958 43.0197H47.86L47.8227 43.1383L41.5057 63.1878ZM13.1248 63.0053H41.3718L47.6112 43.2022H7.06626L13.1248 63.0053Z" fill="#2F2E41"/>
<path d="M39.2795 62.1384H14.233L8.81348 44.2516H44.8607L44.8279 44.3569L39.2795 62.1384Z" fill="#F2F2F2"/>
<path d="M48.3713 41.2179L48.1948 41.171L49.3992 36.6315H56.4052V36.8141H49.5397L48.3713 41.2179Z" fill="#2F2E41"/>
<path d="M45.8092 49.134H8.81348V49.3165H45.8092V49.134Z" fill="#2F2E41"/>
<path d="M43.6904 55.8583H10.8706V56.0408H43.6904V55.8583Z" fill="#2F2E41"/>
<path d="M27.4303 43.1109H27.2478V63.0966H27.4303V43.1109Z" fill="#2F2E41"/>
<path d="M35.6022 43.1052L34.292 63.0904L34.4742 63.1023L35.7843 43.1171L35.6022 43.1052Z" fill="#2F2E41"/>
<path d="M19.0801 43.105L18.8979 43.1168L20.2005 63.1025L20.3827 63.0906L19.0801 43.105Z" fill="#2F2E41"/>
<path d="M96 79.8214H0V80.0357H96V79.8214Z" fill="#2F2E41"/>
<path d="M63.7939 6.62957C63.7939 6.62957 65.3602 11.0874 64.3963 11.7732C63.4325 12.459 67.6493 18.0599 67.6493 18.0599L72.7096 16.6882L69.9385 12.0018C69.9385 12.0018 69.5771 7.31539 69.5771 6.62957C69.5771 5.94375 63.7939 6.62957 63.7939 6.62957Z" fill="#A0616A"/>
<path opacity="0.1" d="M63.7939 6.62957C63.7939 6.62957 65.3602 11.0874 64.3963 11.7732C63.4325 12.459 67.6493 18.0599 67.6493 18.0599L72.7096 16.6882L69.9385 12.0018C69.9385 12.0018 69.5771 7.31539 69.5771 6.62957C69.5771 5.94375 63.7939 6.62957 63.7939 6.62957Z" fill="black"/>
<path d="M61.1651 38.4058C61.1651 38.4058 60.7079 44.1209 61.1651 47.0928C61.6223 50.0647 62.3081 58.2945 62.3081 58.2945C62.3081 58.2945 62.3082 73.8397 64.8228 74.0683C67.3375 74.2969 69.1663 74.5255 69.3949 73.6111C69.6235 72.6967 68.2519 72.2395 68.9377 71.7822C69.6235 71.325 69.8521 69.7248 68.9377 67.8959C68.0233 66.0671 68.9377 47.55 68.9377 47.55L73.2812 59.2089C73.2812 59.2089 73.7384 68.8104 74.1957 70.182C74.6529 71.5536 73.7384 74.0683 75.3387 74.2969C76.9389 74.5255 78.7678 73.1539 79.6822 72.6967C80.5966 72.2395 78.3106 72.2395 78.7678 72.0108C79.225 71.7822 80.5966 71.0964 80.1394 70.8678C79.6822 70.6392 79.225 59.6661 79.225 59.6661C79.225 59.6661 77.9677 36.234 76.3674 35.3196C74.7672 34.4052 73.7384 35.9802 73.7384 35.9802L61.1651 38.4058Z" fill="#2F2E41"/>
<path d="M65.2799 73.1539V74.9827C65.2799 74.9827 63.2224 79.9541 65.2799 79.9541C67.3374 79.9541 68.9376 80.4693 68.9376 79.7835V73.6111L65.2799 73.1539Z" fill="#2F2E41"/>
<path d="M78.7678 73.1506V74.9795C78.7678 74.9795 80.8253 79.9509 78.7678 79.9509C76.7104 79.9509 75.1101 80.466 75.1101 79.7802V73.6079L78.7678 73.1506Z" fill="#2F2E41"/>
<path d="M66.9945 9.94436C69.2671 9.94436 71.1095 8.10205 71.1095 5.82945C71.1095 3.55685 69.2671 1.71455 66.9945 1.71455C64.7219 1.71455 62.8796 3.55685 62.8796 5.82945C62.8796 8.10205 64.7219 9.94436 66.9945 9.94436Z" fill="#A0616A"/>
<path d="M65.7372 13.4877C65.7372 13.4877 66.8803 16.9168 68.7091 16.231L70.538 15.5452L73.7384 37.4914C73.7384 37.4914 71.2238 41.1491 67.5661 38.863C63.9084 36.5769 65.7372 13.4877 65.7372 13.4877Z" fill="#93278F" fill-opacity="0.5"/>
<path d="M68.9377 12.8019L69.9665 10.6302C69.9665 10.6302 76.0245 13.4878 76.9389 14.4022C77.8534 15.3166 77.8534 16.6882 77.8534 16.6882L76.2531 22.4034C76.2531 22.4034 76.7103 34.9767 76.7103 35.4339C76.7103 35.8911 78.3106 38.4058 77.1676 37.4914C76.0245 36.577 75.7959 35.6625 74.8815 37.0342C73.9671 38.4058 71.9096 40.006 71.9096 40.006L68.9377 12.8019Z" fill="#3F3D56"/>
<path d="M76.9388 29.2616L76.253 35.6625C76.253 35.6625 72.1381 39.3202 73.0525 39.5488C73.9669 39.7774 74.4241 38.863 74.4241 38.863C74.4241 38.863 76.0244 40.4632 76.9388 39.5488C77.8532 38.6344 80.1393 29.9474 80.1393 29.9474L76.9388 29.2616Z" fill="#A0616A"/>
<path d="M67.0821 0.0139148C66.1698 -0.0186963 65.1936 -0.0348278 64.4245 0.456759C64.0706 0.703465 63.7602 1.00731 63.506 1.35585C62.7569 2.30283 62.1097 3.49434 62.3879 4.66928L62.7111 4.54324C62.7111 4.85687 62.6414 5.16657 62.507 5.44995C62.5525 5.31762 62.7049 5.53154 62.6641 5.6654L62.3081 6.83333C62.8933 6.61878 63.6213 7.05317 63.7104 7.67008C63.7511 6.31352 63.8918 4.75797 64.9923 3.96365C65.5472 3.56308 66.2495 3.4408 66.9253 3.33221C67.5487 3.23203 68.2022 3.1365 68.7993 3.34173C69.3964 3.54695 69.9049 4.15762 69.7695 4.77433C70.0448 4.67949 70.3528 4.87136 70.4888 5.12882C70.6249 5.38627 70.632 5.68998 70.6361 5.98114C70.9296 6.18855 71.2636 5.77669 71.3832 5.43781C71.6639 4.64234 71.9135 3.79559 71.7622 2.9657C71.611 2.13581 70.9347 1.34273 70.0912 1.33992C70.1936 1.22745 70.2482 1.07957 70.2435 0.927551L69.5483 0.868805C69.7248 0.843812 69.8871 0.758228 70.0074 0.626711C69.7283 0.933882 67.5335 0.0300515 67.0821 0.0139148Z" fill="#2F2E41"/>
<path d="M66.8803 12.1161C66.8803 12.1161 65.0193 10.2925 64.3495 10.4042C63.6798 10.5159 62.7654 12.1161 62.7654 12.1161C62.7654 12.1161 57.2788 13.945 57.5074 15.7738C57.736 17.6027 60.2507 26.5183 60.2507 26.5183C60.2507 26.5183 62.3082 37.2628 60.4793 38.4058C58.6505 39.5488 69.1663 42.5207 69.3949 41.1491C69.6235 39.7774 70.0808 26.0611 69.3949 24.0036C68.7091 21.9462 66.8803 12.1161 66.8803 12.1161Z" fill="#3F3D56"/>
<path d="M74.8813 15.7738H77.7081C77.7081 15.7738 79.6821 24.4608 79.9107 25.3753C80.1393 26.2897 80.5965 30.6332 80.3679 30.6332C80.1393 30.6332 75.5672 29.7188 75.5672 30.4046L74.8813 15.7738Z" fill="#3F3D56"/>
<path d="M74.7858 37.2857H63.9643C62.9083 32.4279 62.8201 27.7343 63.9643 23.25H74.7858C73.0394 27.6536 72.9303 32.315 74.7858 37.2857Z" fill="#F2F2F2"/>
<path d="M59.5647 31.319L62.7652 32.6906C62.7652 32.6906 68.9375 33.6051 68.9375 31.0904C68.9375 28.5757 62.7652 29.9474 62.7652 29.9474L60.7076 29.2895L59.5647 31.319Z" fill="#A0616A"/>
<path d="M60.2506 14.4022L57.5073 15.088L55.4499 27.2041C55.4499 27.2041 54.7641 30.4046 55.9071 30.6332C57.0501 30.8618 60.2506 32.6906 60.2506 32.6906C60.2506 32.6906 60.7078 29.2616 61.6223 29.2616L59.3362 27.4327L60.7078 19.4315L60.2506 14.4022Z" fill="#3F3D56"/>
<path d="M21.4551 37.8115H6.45508V38.0258H21.4551V37.8115Z" fill="#F2F2F2"/>
<path d="M10.7409 35.883H10.5266V37.8651H10.7409V35.883Z" fill="#F2F2F2"/>
<path d="M17.2765 35.883H17.0623V37.8651H17.2765V35.883Z" fill="#F2F2F2"/>
<path d="M26.7051 6.09726H11.7051V6.31155H26.7051V6.09726Z" fill="#F2F2F2"/>
<path d="M22.6337 6.25797H22.4194V8.24012H22.6337V6.25797Z" fill="#F2F2F2"/>
<path d="M16.0981 6.25797H15.8838V8.24012H16.0981V6.25797Z" fill="#F2F2F2"/>
<path d="M41.8123 27.2044H26.8123V27.4187H41.8123V27.2044Z" fill="#F2F2F2"/>
<path d="M37.7409 27.3651H37.5266V29.3473H37.7409V27.3651Z" fill="#F2F2F2"/>
<path d="M31.2053 27.3651H30.991V29.3473H31.2053V27.3651Z" fill="#F2F2F2"/>
<path d="M16.3123 27.0973H1.31226V27.3115H16.3123V27.0973Z" fill="#F2F2F2"/>
<path d="M12.2409 27.258H12.0266V29.2401H12.2409V27.258Z" fill="#F2F2F2"/>
<path d="M5.70525 27.258H5.49097V29.2401H5.70525V27.258Z" fill="#F2F2F2"/>
<path d="M34.3123 16.383H19.3123V16.5973H34.3123V16.383Z" fill="#F2F2F2"/>
<path d="M23.5981 14.4544H23.3838V16.4365H23.5981V14.4544Z" fill="#F2F2F2"/>
<path d="M30.1337 14.4544H29.9194V16.4365H30.1337V14.4544Z" fill="#F2F2F2"/>
</g>
<defs>
<clipPath id="clip0_106_1842">
<rect width="96" height="80.1398" fill="white"/>
</clipPath>
</defs>
</svg>
