<svg width="45" height="45" viewBox="0 0 45 45" fill="none" xmlns="http://www.w3.org/2000/svg">
<circle cx="22.5503" cy="22.5" r="22.4497" fill="#FCDDEC"/>
<path d="M7.42614 18.444C7.2027 17.0645 8.26778 15.813 9.66525 15.813H35.3162C36.7199 15.813 37.7867 17.0752 37.5527 18.4593L35.2951 31.817C35.1106 32.9084 34.1654 33.7073 33.0585 33.7073H11.8288C10.7161 33.7073 9.76763 32.9001 9.58972 31.8017L7.42614 18.444Z" fill="#FF3030"/>
<path fill-rule="evenodd" clip-rule="evenodd" d="M22.5001 22.3659C26.4671 22.3659 29.683 19.1499 29.683 15.1829C29.683 11.2159 26.4671 8 22.5001 8C18.533 8 15.3171 11.2159 15.3171 15.1829C15.3171 19.1499 18.533 22.3659 22.5001 22.3659ZM22.5001 20.7276C25.5623 20.7276 28.0448 18.2452 28.0448 15.1829C28.0448 12.1207 25.5623 9.63821 22.5001 9.63821C19.4378 9.63821 16.9553 12.1207 16.9553 15.1829C16.9553 18.2452 19.4378 20.7276 22.5001 20.7276Z" fill="#FF3030"/>
<path d="M26.2286 15.8526C27.4115 15.8755 28.3519 16.853 28.329 18.0359L28.1793 25.7794C28.1564 26.9623 27.179 27.9027 25.996 27.8798L18.2526 27.7301C17.0697 27.7072 16.1293 26.7297 16.1521 25.5468L16.3019 17.8034C16.3247 16.6204 17.3022 15.68 18.4851 15.7029L26.2286 15.8526Z" fill="#FF3030"/>
</svg>
