<svg width="24" height="24" viewBox="0 0 24 24" fill="none" xmlns="http://www.w3.org/2000/svg">
<path d="M11.2796 11.3451C11.0636 9.14866 9.03795 7.53483 6.75795 7.74292C4.47795 7.951 2.80275 9.9024 3.01875 12.0989C3.23475 14.2954 5.26035 15.9092 7.54035 15.7011C9.52275 15.5208 11.0924 14.0087 11.2796 12.0989C11.294 11.974 11.2988 11.8492 11.2988 11.7243C11.2988 11.5995 11.2892 11.47 11.2796 11.3451ZM7.14675 13.722C5.99955 13.722 5.07315 12.8295 5.07315 11.7243C5.07315 10.6191 5.99955 9.72669 7.14675 9.72669C8.29395 9.72669 9.22035 10.6191 9.22035 11.7243C9.22035 11.8168 9.21555 11.9047 9.20115 11.9879C9.06675 12.9821 8.18835 13.722 7.14675 13.722Z" fill="#FCFCFE"/>
<path d="M11.2796 11.3448V16.0244C10.7372 16.0291 10.214 15.8441 9.81077 15.4973C9.66197 15.3678 9.53717 15.2198 9.43637 15.0534C9.28277 14.8037 9.20117 14.517 9.20117 14.2256V10.0871C9.20117 9.55066 9.47477 9.06513 9.90677 8.73682C10.6892 9.41194 11.1788 10.3414 11.2796 11.3448Z" fill="#FCFCFE"/>
<path d="M20.1021 9.83166C20.4141 9.32198 20.2461 8.65939 19.7133 8.35358C19.5789 8.27481 19.4301 8.22385 19.2717 8.20994H19.0125L13.0653 8.19604H13.0557C13.0509 9.24321 13.9293 10.0958 15.0141 10.0958L17.3997 10.1004L18.4173 10.105L19.5309 10.1097H19.5357C19.6557 10.1097 19.7757 10.1004 19.8909 10.0772C19.8957 10.0772 19.8957 10.0772 19.9005 10.0726L20.1021 9.83166Z" fill="#FCFCFE"/>
<path d="M15.35 15.7139L15.3836 15.6722C14.7788 15.788 14.1932 15.4127 14.0684 14.8289C14.0156 14.5787 14.0588 14.3192 14.1884 14.0968C14.4956 13.9161 14.846 13.8188 15.2012 13.8188H15.9116L16.8716 13.8142L19.718 13.8096H19.7228C20.8028 13.8096 21.6812 14.6528 21.6812 15.7L15.35 15.7139Z" fill="#FCFCFE"/>
<path d="M20.2604 9.2791C20.2604 9.47331 20.2076 9.6629 20.102 9.82937L19.9388 10.0328L19.91 10.0698L16.8716 13.8478L16.2812 14.5876L15.3836 15.702C14.7788 15.8176 14.1932 15.4431 14.0684 14.8604C14.0156 14.6107 14.0588 14.3518 14.1884 14.1298L14.15 14.1529L17.4092 10.0976L18.0332 9.32072L18.182 9.13575C18.47 8.77507 18.8108 8.46525 19.1996 8.21092L19.2092 8.2063C19.2332 8.2063 19.2572 8.21092 19.2812 8.21092C19.838 8.27566 20.2604 8.73345 20.2604 9.2791Z" fill="#FCFCFE"/>
<path d="M12.0044 10.841V11.137C12.0044 11.2156 12.0428 11.2896 12.11 11.3404L13.4252 12.2884C13.4684 12.3207 13.478 12.3809 13.4444 12.4225C13.4396 12.4271 13.43 12.4364 13.4252 12.441L12.11 13.3889C12.0428 13.4352 12.0044 13.5092 12.0044 13.5924V13.8883C12.0092 13.9438 12.0524 13.9901 12.1148 13.9854C12.134 13.9854 12.1532 13.9808 12.1724 13.9669L14.2556 12.4641C14.3132 12.4271 14.3228 12.3531 14.2796 12.2976C14.2748 12.2884 14.2604 12.2791 14.2556 12.2745L12.1724 10.7717C12.1292 10.7393 12.062 10.7485 12.0284 10.7902C12.014 10.7994 12.0044 10.8179 12.0044 10.841Z" fill="#FCFCFE"/>
<path d="M12.1676 11.9231L12.6428 12.2613C12.7004 12.303 12.71 12.3771 12.6668 12.4281C12.662 12.4374 12.6524 12.4467 12.6428 12.4513L12.1724 12.7895C12.1244 12.822 12.062 12.8081 12.0236 12.7617C12.014 12.7432 12.0044 12.7293 12.0044 12.7061V11.9972C12.0044 11.9416 12.0476 11.8999 12.1052 11.8999C12.1292 11.9045 12.1532 11.9092 12.1676 11.9231Z" fill="#FCFCFE"/>
<circle cx="12" cy="12" r="11.25" stroke="white" stroke-width="1.5"/>
</svg>
