<svg width="100" height="100" viewBox="0 0 100 100" fill="none" xmlns="http://www.w3.org/2000/svg">
<path d="M49.9996 99.8996C36.6796 99.8996 24.1396 94.6996 14.7196 85.2796C5.29961 75.8596 0.0996094 63.3196 0.0996094 49.9996C0.0996094 36.6796 5.29961 24.1396 14.7196 14.7196C24.1396 5.29961 36.6796 0.0996094 49.9996 0.0996094C63.3196 0.0996094 75.8596 5.29961 85.2796 14.7196C94.6996 24.1396 99.8996 36.6796 99.8996 49.9996C99.8996 63.3196 94.6996 75.8596 85.2796 85.2796C75.8596 94.6996 63.3196 99.8996 49.9996 99.8996Z" fill="white"/>
<path d="M50 0.2C56.72 0.2 63.24 1.52 69.38 4.12C75.32 6.62 80.64 10.22 85.2 14.8C89.78 19.38 93.36 24.7 95.88 30.62C98.48 36.76 99.8 43.28 99.8 50C99.8 56.72 98.48 63.24 95.88 69.38C93.38 75.32 89.78 80.64 85.2 85.2C80.62 89.78 75.3 93.36 69.38 95.88C63.24 98.48 56.72 99.8 50 99.8C43.28 99.8 36.76 98.48 30.62 95.88C24.68 93.38 19.36 89.78 14.8 85.2C10.22 80.62 6.64 75.3 4.12 69.38C1.52 63.24 0.2 56.72 0.2 50C0.2 43.28 1.52 36.76 4.12 30.62C6.62 24.68 10.22 19.36 14.8 14.8C19.38 10.24 24.7 6.64 30.62 4.12C36.76 1.52 43.28 0.2 50 0.2ZM50 0C22.38 0 0 22.38 0 50C0 77.62 22.38 100 50 100C77.62 100 100 77.62 100 50C100 22.38 77.62 0 50 0Z" fill="white"/>
<path d="M45.4398 48.2397C44.5398 38.7397 36.0998 31.7597 26.5998 32.6597C17.0998 33.5597 10.1198 41.9997 11.0198 51.4997C11.9198 60.9997 20.3598 67.9797 29.8598 67.0797C38.1198 66.2997 44.6598 59.7597 45.4398 51.4997C45.4998 50.9597 45.5198 50.4197 45.5198 49.8797C45.5198 49.3397 45.4798 48.7797 45.4398 48.2397ZM28.2198 58.5197C23.4398 58.5197 19.5798 54.6597 19.5798 49.8797C19.5798 45.0997 23.4398 41.2397 28.2198 41.2397C32.9998 41.2397 36.8598 45.0997 36.8598 49.8797C36.8598 50.2797 36.8398 50.6597 36.7798 51.0197C36.2198 55.3197 32.5598 58.5197 28.2198 58.5197Z" fill="#FF3030"/>
<path d="M45.4398 48.24V68.48C43.1798 68.5 40.9998 67.7 39.3198 66.2C38.6998 65.64 38.1798 65 37.7598 64.28C37.1198 63.2 36.7798 61.96 36.7798 60.7V42.8C36.7798 40.48 37.9198 38.38 39.7198 36.96C42.9798 39.88 45.0198 43.9 45.4398 48.24Z" fill="#FF3030"/>
<path d="M82.2002 41.6801C83.5002 39.4801 82.8002 36.6201 80.5802 35.3001C80.0202 34.9601 79.4002 34.7401 78.7402 34.6801H77.6602L52.8802 34.6201H52.8402C52.8202 39.1401 56.4802 42.8201 61.0002 42.8201L70.9402 42.8401L75.1802 42.8601L79.8202 42.8801H79.8402C80.3402 42.8801 80.8402 42.8401 81.3202 42.7401C81.3402 42.7401 81.3402 42.7401 81.3602 42.7201L82.2002 41.6801Z" fill="#FF3030"/>
<path d="M62.3999 67.1199L62.5399 66.9399C60.0199 67.4399 57.5799 65.8199 57.0599 63.2999C56.8399 62.2199 57.0199 61.0999 57.5599 60.1399C58.8399 59.3599 60.2999 58.9399 61.7799 58.9399H64.7399L68.7399 58.9199L80.5999 58.8999H80.6199C85.1199 58.8999 88.7799 62.5399 88.7799 67.0599L62.3999 67.1199Z" fill="#FF3030"/>
<path d="M82.8599 39.2999C82.8599 40.1399 82.6399 40.9599 82.1999 41.6799L81.5199 42.5599L81.3999 42.7199L68.7399 59.0599L66.2799 62.2599L62.5399 67.0799C60.0199 67.5799 57.5799 65.9599 57.0599 63.4399C56.8399 62.3599 57.0199 61.2399 57.5599 60.2799L57.3999 60.3799L70.9799 42.8399L73.5799 39.4799L74.1999 38.6799C75.3999 37.1199 76.8199 35.7799 78.4399 34.6799L78.4799 34.6599C78.5799 34.6599 78.6799 34.6799 78.7799 34.6799C81.0999 34.9599 82.8599 36.9399 82.8599 39.2999Z" fill="#FF3030"/>
<path d="M48.4597 46.0597V47.3397C48.4597 47.6797 48.6197 47.9997 48.8997 48.2197L54.3797 52.3197C54.5597 52.4597 54.5997 52.7197 54.4597 52.8997C54.4397 52.9197 54.3997 52.9597 54.3797 52.9797L48.8997 57.0797C48.6197 57.2797 48.4597 57.5997 48.4597 57.9597V59.2397C48.4797 59.4797 48.6597 59.6797 48.9197 59.6597C48.9997 59.6597 49.0797 59.6397 49.1597 59.5797L57.8397 53.0797C58.0797 52.9197 58.1197 52.5997 57.9397 52.3597C57.9197 52.3197 57.8597 52.2797 57.8397 52.2597L49.1597 45.7597C48.9797 45.6197 48.6997 45.6597 48.5597 45.8397C48.4997 45.8797 48.4597 45.9597 48.4597 46.0597Z" fill="#FF3030"/>
<path d="M49.1397 50.7396L51.1197 52.1997C51.3597 52.3797 51.3997 52.6997 51.2197 52.9197C51.1997 52.9597 51.1597 52.9997 51.1197 53.0197L49.1597 54.4797C48.9597 54.6197 48.6997 54.5597 48.5397 54.3597C48.4997 54.2797 48.4597 54.2197 48.4597 54.1197V51.0597C48.4597 50.8196 48.6397 50.6396 48.8797 50.6396C48.9797 50.6596 49.0797 50.6796 49.1397 50.7396Z" fill="#FF3030"/>
</svg>
