<svg width="25" height="25" viewBox="0 0 25 25" fill="none" xmlns="http://www.w3.org/2000/svg">
<circle cx="12.5" cy="12.5" r="12.5" fill="#FCDDEC"/>
<path d="M12.2076 16.1064C12.1281 16.1067 12.0496 16.0891 11.9778 16.0551C11.906 16.021 11.8428 15.9713 11.7927 15.9096L9.22354 12.7181C9.14531 12.6229 9.10254 12.5036 9.10254 12.3803C9.10254 12.2571 9.14531 12.1378 9.22354 12.0426L11.8831 8.85109C11.9734 8.74247 12.1031 8.67415 12.2438 8.66119C12.3844 8.64822 12.5245 8.69166 12.6331 8.78194C12.7417 8.87223 12.8101 9.00197 12.823 9.14262C12.836 9.28327 12.7926 9.42332 12.7023 9.53194L10.3246 12.383L12.6225 15.2341C12.6875 15.3121 12.7288 15.4072 12.7415 15.508C12.7542 15.6089 12.7378 15.7112 12.6942 15.803C12.6505 15.8948 12.5815 15.9721 12.4953 16.0259C12.409 16.0797 12.3092 16.1076 12.2076 16.1064Z" fill="#FF3030"/>
</svg>
