<svg width="108" height="175" viewBox="0 0 108 175" fill="none" xmlns="http://www.w3.org/2000/svg">
<g clip-path="url(#clip0_106_5694)">
<path d="M52.6132 92.2262C61.158 92.2262 68.085 85.2992 68.085 76.7544C68.085 68.2095 61.158 61.2826 52.6132 61.2826C44.0683 61.2826 37.1414 68.2095 37.1414 76.7544C37.1414 85.2992 44.0683 92.2262 52.6132 92.2262Z" fill="#FF3030" fill-opacity="0.5"/>
<path d="M14.9843 114.402C14.6565 114.245 14.377 114.002 14.1752 113.7C13.9733 113.398 13.8565 113.047 13.8371 112.684L13.612 108.423C13.5843 107.887 13.7702 107.362 14.1291 106.963C14.4879 106.564 14.9903 106.324 15.5261 106.295L51.0384 104.419C51.5742 104.391 52.0991 104.577 52.498 104.936C52.8969 105.295 53.1371 105.797 53.166 106.333L53.3911 110.594C53.4188 111.13 53.2328 111.655 52.874 112.054C52.5152 112.452 52.0128 112.693 51.4771 112.722L15.9647 114.598C15.6266 114.616 15.2894 114.549 14.9843 114.402Z" fill="#FF3030" fill-opacity="0.5"/>
<path d="M39.4649 114.485C39.1194 114.318 38.8283 114.057 38.6254 113.731C38.4226 113.405 38.3163 113.028 38.3188 112.645L38.2767 104.622C38.2786 104.357 38.333 104.094 38.4366 103.849C38.5402 103.604 38.6911 103.382 38.8806 103.195C39.07 103.009 39.2945 102.861 39.541 102.762C39.7874 102.662 40.0512 102.612 40.3171 102.614L56.5178 104.042C56.9467 104.045 57.488 104.709 57.9232 105.242C58.0597 105.41 58.1776 105.554 58.2638 105.642C58.3016 105.68 58.3376 105.72 58.3717 105.761C58.6812 106.13 58.8489 106.597 58.8446 107.078L58.8091 111.344C58.804 111.881 58.5863 112.393 58.2038 112.77C57.8213 113.146 57.3051 113.355 56.7686 113.351L40.3381 114.685C40.0359 114.684 39.7376 114.616 39.4649 114.485Z" fill="#2F2E41"/>
<path d="M49.5972 175H45.3304C44.7939 174.999 44.2795 174.786 43.9002 174.407C43.5208 174.027 43.3074 173.513 43.3068 172.976V136.836C43.3074 136.3 43.5208 135.785 43.9002 135.406C44.2796 135.027 44.7939 134.813 45.3304 134.813H49.5972C50.1337 134.813 50.6481 135.027 51.0274 135.406C51.4068 135.785 51.6202 136.3 51.6208 136.836V172.976C51.6202 173.513 51.4068 174.027 51.0274 174.407C50.6481 174.786 50.1337 174.999 49.5972 175Z" fill="#FF3030" fill-opacity="0.5"/>
<path d="M60.8517 175H56.585C56.0484 174.999 55.5341 174.786 55.1547 174.407C54.7753 174.027 54.5619 173.513 54.5613 172.976V136.836C54.5619 136.3 54.7753 135.785 55.1547 135.406C55.5341 135.027 56.0484 134.813 56.585 134.813H60.8517C61.3882 134.813 61.9026 135.027 62.2819 135.406C62.6613 135.785 62.8747 136.3 62.8753 136.836V172.976C62.8747 173.513 62.6613 174.027 62.2819 174.407C61.9026 174.786 61.3882 174.999 60.8517 175Z" fill="#FF3030" fill-opacity="0.5"/>
<path d="M54.6728 82.4888L54.6889 81.9106C53.6133 81.8807 52.665 81.8132 51.9524 81.2926C51.7504 81.1367 51.5843 80.939 51.4656 80.7131C51.3468 80.4872 51.278 80.2384 51.264 79.9836C51.2515 79.8278 51.275 79.6713 51.3328 79.5262C51.3907 79.3811 51.4811 79.2513 51.5973 79.1468C52.0703 78.7473 52.8314 78.8766 53.3862 79.131L53.8645 79.3503L52.9472 72.6462L52.3744 72.7247L53.1547 78.4275C52.8352 78.3089 52.4913 78.2723 52.154 78.3208C51.8168 78.3693 51.4971 78.5015 51.2241 78.7053C51.0404 78.8656 50.8963 79.0663 50.803 79.2915C50.7097 79.5168 50.6697 79.7606 50.6863 80.0039C50.7031 80.3463 50.7947 80.6808 50.9545 80.9841C51.1143 81.2874 51.3385 81.5521 51.6114 81.7596C52.5269 82.4287 53.7167 82.462 54.6728 82.4888Z" fill="#2F2E41"/>
<path d="M49.5414 73.2164H46.4275V73.7946H49.5414V73.2164Z" fill="#2F2E41"/>
<path d="M59.3704 73.2164H56.2565V73.7946H59.3704V73.2164Z" fill="#2F2E41"/>
<path d="M70.2399 128.28L55.9595 99.8028H56.1609C56.6591 99.8022 57.1367 99.604 57.489 99.2518C57.8412 98.8995 58.0394 98.4219 58.04 97.9237V97.3455C58.0394 96.8473 57.8412 96.3697 57.489 96.0174C57.1367 95.6652 56.6591 95.467 56.1609 95.4664H49.8009C49.3028 95.467 48.8251 95.6652 48.4729 96.0174C48.1206 96.3697 47.9224 96.8473 47.9219 97.3455V97.9237C47.9233 98.3833 48.0935 98.8264 48.4001 99.1687C48.7067 99.5111 49.1284 99.729 49.585 99.7809L35.2635 128.295C34.5824 129.651 34.2596 131.159 34.3258 132.675C34.3919 134.191 34.8449 135.665 35.6415 136.957C36.4381 138.248 37.552 139.315 38.8771 140.054C40.2022 140.794 41.6945 141.182 43.212 141.182H62.2764C63.7958 141.182 65.29 140.794 66.617 140.053C67.9439 139.313 69.0594 138.245 69.8574 136.952C70.6555 135.659 71.1096 134.184 71.1765 132.666C71.2435 131.148 70.921 129.638 70.2399 128.28Z" fill="#2F2E41"/>
<path d="M53.2814 106.248L85.4937 91.1807C85.9799 90.9538 86.5362 90.9292 87.0406 91.1121C87.545 91.295 87.9562 91.6705 88.184 92.1562L89.9917 96.021C90.2185 96.5073 90.2432 97.0636 90.0603 97.568C89.8774 98.0724 89.5019 98.4836 89.0162 98.7115L56.8039 113.779C56.3177 114.005 55.7614 114.03 55.257 113.847C54.7526 113.664 54.3414 113.289 54.1136 112.803L52.3059 108.938C52.1927 108.698 52.1284 108.437 52.1166 108.172C52.1048 107.906 52.1459 107.641 52.2373 107.391C52.3088 107.193 52.4105 107.008 52.5389 106.841C52.7354 106.587 52.9901 106.383 53.2814 106.248Z" fill="#FF3030" fill-opacity="0.5"/>
<path d="M52.1768 106.155L66.3587 97.7015C66.8421 97.4696 67.3978 97.4388 67.9039 97.6159C68.41 97.793 68.8252 98.1636 69.0586 98.6464L72.635 105.832C72.7506 106.072 72.8176 106.333 72.8321 106.599C72.8466 106.865 72.8082 107.132 72.7193 107.383C72.6303 107.635 72.4925 107.866 72.3138 108.064C72.1351 108.262 71.919 108.423 71.6779 108.537L56.5283 114.389C56.1316 114.58 55.3527 114.223 54.7269 113.936C54.5307 113.846 54.3612 113.768 54.2454 113.728C54.1944 113.71 54.1446 113.69 54.096 113.668C53.6557 113.474 53.2992 113.129 53.091 112.695L51.2416 108.85C51.0789 108.511 51.0135 108.133 51.0529 107.759C51.0922 107.385 51.2347 107.029 51.4644 106.732C51.6535 106.486 51.8975 106.289 52.1768 106.155Z" fill="#2F2E41"/>
<path d="M40.3932 68.7073C40.1862 68.7066 39.9879 68.624 39.8416 68.4776C39.6953 68.3312 39.6129 68.1329 39.6124 67.9259C39.6114 67.8644 39.6183 67.803 39.6329 67.7433L43.6768 49.9308C43.7075 49.7966 43.7728 49.6729 43.8662 49.5719C43.9597 49.4709 44.0781 49.3963 44.2094 49.3554C44.3408 49.3145 44.4806 49.3089 44.6149 49.339C44.7491 49.3692 44.8731 49.434 44.9745 49.5271L58.3813 61.9421C58.4821 62.0357 58.5566 62.154 58.5973 62.2854C58.6381 62.4168 58.6436 62.5565 58.6135 62.6907C58.5833 62.8249 58.5184 62.9488 58.4254 63.05C58.3323 63.1513 58.2143 63.2264 58.0831 63.2677L40.6283 68.672C40.5521 68.6953 40.4729 68.7072 40.3932 68.7073Z" fill="#3F3D56"/>
<path d="M51.3589 55.6858L42.9376 54.0099L43.0701 53.425L50.5152 54.9052L51.3589 55.6858Z" fill="white"/>
<path d="M57.99 61.8286L41.8887 58.6246L42.0212 58.0369L57.1459 61.0447L57.99 61.8286Z" fill="white"/>
<path d="M52.2299 64.8909L51.0213 65.2645L40.8428 63.239L40.9753 62.6512L52.2299 64.8909Z" fill="white"/>
<path d="M91.4887 68.9796C92.8922 68.9796 94.03 67.8418 94.03 66.4382C94.03 65.0347 92.8922 63.8969 91.4887 63.8969C90.0851 63.8969 88.9473 65.0347 88.9473 66.4382C88.9473 67.8418 90.0851 68.9796 91.4887 68.9796Z" fill="#FF3030" fill-opacity="0.5"/>
<path d="M58.8142 3.6305C59.8167 3.6305 60.6294 2.81779 60.6294 1.81525C60.6294 0.812716 59.8167 0 58.8142 0C57.8116 0 56.9989 0.812716 56.9989 1.81525C56.9989 2.81779 57.8116 3.6305 58.8142 3.6305Z" fill="#FF6584"/>
<path d="M19.2417 59.9033C20.2442 59.9033 21.0569 59.0906 21.0569 58.0881C21.0569 57.0855 20.2442 56.2728 19.2417 56.2728C18.2391 56.2728 17.4264 57.0855 17.4264 58.0881C17.4264 59.0906 18.2391 59.9033 19.2417 59.9033Z" fill="#FF6584"/>
<path d="M82.7755 53.7315C83.778 53.7315 84.5907 52.9187 84.5907 51.9162C84.5907 50.9137 83.778 50.101 82.7755 50.101C81.7729 50.101 80.9602 50.9137 80.9602 51.9162C80.9602 52.9187 81.7729 53.7315 82.7755 53.7315Z" fill="#FF3030" fill-opacity="0.5"/>
<path d="M27.5918 78.4188C28.5944 78.4188 29.4071 77.6061 29.4071 76.6036C29.4071 75.601 28.5944 74.7883 27.5918 74.7883C26.5893 74.7883 25.7766 75.601 25.7766 76.6036C25.7766 77.6061 26.5893 78.4188 27.5918 78.4188Z" fill="#FF3030" fill-opacity="0.5"/>
<path d="M84.9538 83.5016C85.9563 83.5016 86.7691 82.6889 86.7691 81.6863C86.7691 80.6838 85.9563 79.8711 84.9538 79.8711C83.9513 79.8711 83.1385 80.6838 83.1385 81.6863C83.1385 82.6889 83.9513 83.5016 84.9538 83.5016Z" fill="#E6E6E6"/>
<path d="M68.9796 18.8787C69.9821 18.8787 70.7948 18.066 70.7948 17.0634C70.7948 16.0609 69.9821 15.2482 68.9796 15.2482C67.977 15.2482 67.1643 16.0609 67.1643 17.0634C67.1643 18.066 67.977 18.8787 68.9796 18.8787Z" fill="#CCCCCC"/>
<path d="M0.36913 38.8379C2.26988 38.9576 4.1152 39.5261 5.75383 40.4968C7.39245 41.4674 8.77772 42.8125 9.7961 44.4219C10.0815 44.8781 10.4541 45.3795 10.2565 45.9411C10.1877 46.1564 10.0478 46.342 9.85984 46.4676C9.67185 46.5931 9.44683 46.6512 9.22156 46.6323C8.9407 46.5718 8.68753 46.4207 8.5011 46.2021C8.31467 45.9835 8.20535 45.7096 8.18998 45.4227C8.17461 45.1358 8.25405 44.8519 8.41605 44.6146C8.57806 44.3773 8.81362 44.2 9.08641 44.1098C10.4047 43.5475 11.7347 44.4166 12.8086 45.1101C15.2554 46.6905 17.9466 48.1197 20.9115 48.2998C23.6547 48.4664 26.5963 47.3909 28.1221 45.012C28.389 44.5958 27.7263 44.2112 27.4606 44.6253C25.9474 46.9846 22.8883 47.8319 20.2285 47.4673C18.6434 47.2171 17.1129 46.6975 15.7032 45.9309C14.9721 45.5515 14.2631 45.1309 13.5683 44.6888C12.9073 44.2275 12.2066 43.8258 11.4745 43.4884C10.2535 42.9869 8.63722 43.0261 7.78437 44.1808C6.98873 45.2581 7.60362 47.0516 8.93438 47.3545C9.22631 47.412 9.52796 47.3962 9.81228 47.3085C10.0966 47.2208 10.3547 47.0639 10.5635 46.8519C10.7722 46.6399 10.9251 46.3794 11.0084 46.0937C11.0918 45.8081 11.1029 45.5062 11.0408 45.2152C10.9081 44.5808 10.4304 43.96 10.0606 43.4415C8.94963 41.8786 7.50219 40.5849 5.82491 39.6556C4.14764 38.7263 2.28325 38.1851 0.369086 38.0719C-0.123671 38.0475 -0.122386 38.8136 0.369086 38.8379L0.36913 38.8379Z" fill="#CCCCCC"/>
<path d="M107.727 62.0263C106.454 61.2063 105.392 60.0962 104.631 58.787C103.869 57.4777 103.428 56.0065 103.345 54.4941C103.323 54.0666 103.259 53.574 103.614 53.2605C103.745 53.1377 103.914 53.063 104.094 53.0486C104.273 53.0343 104.452 53.0812 104.601 53.1817C104.772 53.3325 104.889 53.5356 104.934 53.7597C104.979 53.9838 104.949 54.2164 104.848 54.4216C104.748 54.6268 104.582 54.7932 104.378 54.8952C104.173 54.9972 103.941 55.029 103.717 54.9859C102.583 54.8654 101.996 53.7463 101.519 52.8484C100.433 50.8024 99.1177 48.7666 97.1284 47.4922C95.2879 46.3132 92.828 45.9199 90.8462 46.9806C90.4995 47.1662 90.8108 47.6902 91.1558 47.5055C93.1212 46.4536 95.5741 47.0509 97.28 48.3352C98.2839 49.1233 99.1454 50.0775 99.8273 51.1563C100.188 51.7032 100.517 52.2701 100.828 52.8465C101.109 53.4231 101.44 53.9737 101.817 54.4917C102.471 55.3133 103.609 55.9127 104.648 55.4413C104.88 55.3214 105.081 55.1489 105.234 54.9377C105.387 54.7265 105.489 54.4823 105.53 54.2248C105.572 53.9673 105.553 53.7036 105.475 53.4547C105.397 53.2058 105.262 52.9786 105.08 52.7914C104.9 52.6383 104.684 52.5323 104.453 52.483C104.221 52.4337 103.981 52.4426 103.754 52.509C103.527 52.5753 103.319 52.6969 103.151 52.863C102.982 53.0291 102.858 53.2344 102.788 53.4606C102.681 53.9923 102.679 54.5398 102.781 55.0724C102.947 56.5885 103.451 58.048 104.255 59.3436C105.06 60.6391 106.145 61.7377 107.43 62.5583C107.763 62.7662 108.059 62.2337 107.727 62.0263L107.727 62.0263Z" fill="#CCCCCC"/>
<path d="M45.0877 11.7649C43.5759 11.6697 42.1083 11.2175 40.805 10.4455C39.5017 9.67355 38.3999 8.60369 37.59 7.32367C37.363 6.9608 37.0667 6.56203 37.2238 6.11538C37.2786 5.94412 37.3898 5.7965 37.5393 5.69664C37.6888 5.59679 37.8678 5.5506 38.0469 5.56564C38.2703 5.61373 38.4717 5.73397 38.62 5.90783C38.7682 6.08169 38.8552 6.29951 38.8674 6.52768C38.8796 6.75586 38.8164 6.98171 38.6876 7.17042C38.5587 7.35913 38.3714 7.5002 38.1544 7.57188C37.1059 8.01913 36.0481 7.32793 35.194 6.7763C33.2479 5.51936 31.1074 4.38263 28.7493 4.23939C26.5676 4.10688 24.228 4.96233 23.0144 6.85435C22.8021 7.18536 23.3293 7.49124 23.5405 7.16185C24.744 5.28544 27.1771 4.61152 29.2925 4.90154C30.5532 5.10048 31.7706 5.51376 32.8918 6.12349C33.4732 6.42525 34.0371 6.75976 34.5897 7.1114C35.1155 7.47828 35.6728 7.79776 36.2551 8.06609C37.2261 8.46499 38.5117 8.43383 39.19 7.51541C39.3338 7.29778 39.4248 7.0495 39.4556 6.79043C39.4864 6.53135 39.4561 6.26867 39.3672 6.02338C39.2783 5.77809 39.1333 5.557 38.9437 5.37778C38.7541 5.19857 38.5252 5.06619 38.2753 4.99124C38.0431 4.94547 37.8032 4.95803 37.5771 5.0278C37.3509 5.09756 37.1456 5.22235 36.9796 5.39097C36.8136 5.5596 36.692 5.76679 36.6257 5.99398C36.5594 6.22116 36.5506 6.46124 36.6 6.69269C36.7657 7.20915 37.0305 7.68834 37.3796 8.10344C38.2632 9.34647 39.4144 10.3754 40.7484 11.1146C42.0825 11.8537 43.5653 12.2841 45.0877 12.3742C45.4796 12.3935 45.4786 11.7842 45.0877 11.7649L45.0877 11.7649Z" fill="#CCCCCC"/>
<path d="M46.4705 31.0668H44.6552V37.0312H46.4705V31.0668Z" fill="#CCCCCC"/>
<path d="M17.1203 26.9044L18.3819 25.6428L14.2368 21.4977L12.9752 22.7593L17.1203 26.9044Z" fill="#B3B3B3"/>
<path d="M68.1589 39.4388L69.4204 40.7003L73.5655 36.5552L72.304 35.2937L68.1589 39.4388Z" fill="#B3B3B3"/>
<path d="M16.6057 90.9919L17.8672 92.2534L22.0124 88.1083L20.7508 86.8468L16.6057 90.9919Z" fill="#FF6584"/>
</g>
<defs>
<clipPath id="clip0_106_5694">
<rect width="107.873" height="175" fill="white"/>
</clipPath>
</defs>
</svg>
